<svg xmlns="http://www.w3.org/2000/svg" version="1.1" xmlns:xlink="http://www.w3.org/1999/xlink" xmlns:svgjs="http://svgjs.dev/svgjs" width="1000" height="1125" viewBox="0 0 1000 1125"><g transform="matrix(1,0,0,1,0,0)"><svg viewBox="0 0 320 360" data-background-color="#ffffff" preserveAspectRatio="xMidYMid meet" height="1125" width="1000" xmlns="http://www.w3.org/2000/svg" xmlns:xlink="http://www.w3.org/1999/xlink"><g id="tight-bounds" transform="matrix(1,0,0,1,0,0)"><svg viewBox="0 0 320 360" height="360" width="320"><g><svg></svg></g><g><svg viewBox="0 0 320 360" height="360" width="320"><g><path d="M39.474 120.804l2.852-5.236c22.696-41.686 66.871-69.977 117.674-69.972 50.817 0 95.006 28.305 117.697 70.005l2.852 5.241 8.173-31.337 31.03 7.961-2.654-4.792c-30.586-55.251-89.468-92.674-157.098-92.674-67.631 0-126.508 37.423-157.103 92.674l-2.654 4.787 31.063-7.956zM160 4.721c63.839 0 119.567 34.288 150.073 85.389l-24.731-6.341-6.417 24.608c-24.217-40.411-68.381-67.503-118.925-67.503-50.525 0-94.68 27.078-118.897 67.465l-6.412-24.575-24.764 6.341c30.506-51.101 86.238-85.384 150.073-85.384zM280.526 239.191l-2.852 5.236c-22.696 41.691-66.871 69.977-117.674 69.977-50.817 0-95.006-28.301-117.697-70.005l-2.852-5.236-8.173 31.332-31.035-7.961 2.654 4.792c30.591 55.246 89.468 92.674 157.103 92.674 67.631 0 126.513-37.427 157.103-92.674l2.654-4.787-31.063 7.956zM160 355.279c-63.839 0-119.567-34.288-150.073-85.389l24.727 6.346 6.421-24.609c24.217 40.402 68.381 67.499 118.925 67.499 50.529 0 94.68-27.078 118.901-67.47l6.408 24.575 24.764-6.341c-30.506 51.096-86.233 85.388-150.073 85.388z" fill="#ee3e38" fill-rule="nonzero" stroke="none" stroke-width="1" stroke-linecap="butt" stroke-linejoin="miter" stroke-miterlimit="10" stroke-dasharray="" stroke-dashoffset="0" font-family="none" font-weight="none" font-size="none" text-anchor="none" style="mix-blend-mode: normal" data-fill-palette-color="tertiary"></path></g><g transform="matrix(1,0,0,1,72.92899408284023,90)"><svg viewBox="0 0 174.14201183431953 180" height="180" width="174.14201183431953"><g><svg viewBox="0 0 174.14201183431953 180" height="180" width="174.14201183431953"><g><svg viewBox="0 0 174.14201183431953 180" height="180" width="174.14201183431953"><g><svg viewBox="0 0 174.14201183431953 180" height="180" width="174.14201183431953"><g><svg viewBox="0 0 174.14201183431953 180" height="180" width="174.14201183431953"><g transform="matrix(1,0,0,1,0,0)"><svg width="174.14201183431953" viewBox="1.2199999999999998 -32.57 31.93 33.01" height="180" data-palette-color="#ee3e38"><path d="M1.22-15.72L1.22-15.72Q1.22-22.61 5.91-27.59 10.6-32.57 17.29-32.57L17.29-32.57Q22.61-32.57 28.47-31.15L28.47-31.15Q28.71-31.1 29.15-27.47 29.59-23.83 29.59-23.14L29.59-23.14Q29.59-22.75 28.71-22.75L28.71-22.75Q27.69-22.75 27.2-23L27.2-23Q26.95-23.93 26.42-24.9 25.88-25.88 24.8-27.1 23.73-28.32 21.83-29.08 19.92-29.83 17.53-29.83L17.53-29.83Q8.74-29.83 8.74-16.85L8.74-16.85Q8.74-13.18 9.69-10.03 10.64-6.88 13.06-4.59 15.48-2.29 19.09-2.29L19.09-2.29Q21.24-2.29 22.22-3.08L22.22-3.08Q22.75-3.52 22.75-4.54L22.75-4.54 22.75-7.62 22.75-7.96Q22.75-10.45 22.41-11.72L22.41-11.72Q22.02-13.04 19.19-13.04L19.19-13.04Q18.99-13.04 18.97-13.84 18.95-14.65 19.14-14.84L19.14-14.84Q20.02-14.79 21.46-14.72 22.9-14.65 24.1-14.6 25.29-14.55 26.42-14.55L26.42-14.55Q27.15-14.55 33.01-14.84L33.01-14.84Q33.15-14.4 33.15-13.87L33.15-13.87Q33.15-12.99 32.96-12.99L32.96-12.99Q31.84-12.99 30.37-12.26L30.37-12.26Q29.59-11.87 29.59-8.4L29.59-8.4 29.59-5.57Q29.59-4.69 29.74-4.25 29.88-3.81 29.88-3.71L29.88-3.71Q29.88-2.88 28.86-2.34L28.86-2.34Q27.05-1.42 26.05-1 25.05-0.59 22.49-0.07 19.92 0.44 16.75 0.44L16.75 0.44Q10.3 0.44 5.76-4.37 1.22-9.18 1.22-15.72Z" opacity="1" transform="matrix(1,0,0,1,0,0)" fill="#ee3e38" class="undefined-text-0" data-fill-palette-color="primary" id="text-0"></path></svg></g></svg></g></svg></g></svg></g></svg></g></svg></g></svg></g><defs></defs></svg><rect width="320" height="360" fill="none" stroke="none" visibility="hidden"></rect></g></svg></g></svg>